<svg xmlns="http://www.w3.org/2000/svg" viewBox="0 0 210 135.04"><defs><style>.cls-1{fill:#702fff;}</style></defs><g id="Layer_2" data-name="Layer 2"><g id="Layer_1-2" data-name="Layer 1"><path class="cls-1" d="M130.59,48.92v85.77h-9.88L30.35,61.63V135H0V0H8.82l92.47,78.22V48.57S130.06,49.45,130.59,48.92Z"/><path class="cls-1" d="M32.82.07,86.47,48.92V33h80.74a13.06,13.06,0,0,1,13,13.06V92.57a13.06,13.06,0,0,1-13,13.06H147.12V135l20.5-.06C191,135,210,117.05,210,93.63V42.51A42.39,42.39,0,0,0,167.37.11C115,.4,33.06.31,32.82.07Z"/></g></g></svg>