<svg xmlns="http://www.w3.org/2000/svg" viewBox="0 0 134.27 125.04"><defs><style>.cls-1{fill:#0233e1;}</style></defs><g id="Layer_2" data-name="Layer 2"><g id="Layer_3" data-name="Layer 3"><path class="cls-1" d="M70.8,22.83A13.21,13.21,0,0,0,60.64,18.5c-13,.06-26.95,12.75-42.74,38.8C10.74,69.11,3.2,80.78,0,87.61H14.11c1.19-2.2,15.26-24.75,21.1-33.22,4.87-7.07,18.72-26.07,25.29-22.93,2.42,1.16,2.1,6.1,2.14,8.2a172.72,172.72,0,0,1-1.4,19.45c-.28,2.68-.56,5.33-.8,7.93l3.9-4.71.21-.25,0,0,.18-.23q5.49-6.65,10.52-12.68C76.16,37.84,75.81,28.39,70.8,22.83Z"/><path class="cls-1" d="M119.42,34c-.6,1.1-13.41,24.65-19.39,33.35-4.88,7.07-19,25.15-24.87,23-2.51-.93-2.53-6.17-2.57-8.27A175.1,175.1,0,0,1,74,62.6c.29-2.77.57-5.49.82-8.17-2.61,3.13-5.2,6.27-7.75,9.36l-.2.24,0,0-.19.23L60,72.3c-.9,11.45-.59,21,4.47,26.58a13.21,13.21,0,0,0,10.15,4.33c13-.06,27-12.75,42.74-38.8A331.09,331.09,0,0,0,133.51,34Z"/><path class="cls-1" d="M130.46,5.1c2.44,4.06-1.09,13.28-3.42,18.1h3.33c2.27-5,5.79-14.41,2.67-19.64C131.62,1.2,129.13,0,125.62,0h-.07c-8,0-24.55,18.34-50.28,49.19-.08,1-.16,2-.25,3l-.21,2.27C96.17,28.68,118.18,3,125.57,3,128,3,129.61,3.68,130.46,5.1Z"/><path class="cls-1" d="M9,122c-2.46,0-4-.67-4.89-2.09-2.47-4.11.27-16.22,2.78-21.57H3.55c-2.28,5-5.15,17.86-2,23.11C3,123.85,5.45,125,9,125H9c8.39,0,23-19.1,50.94-52.74.07-.91.15-1.82.24-2.75s.15-1.67.23-2.51C37.94,94.24,16.85,122,9,122Z"/></g></g></svg>
